# xmcd
#
# Track frame offsets: 
#        150
#        26591
#        41831
#        55591
#        67530
#        81437
#        93119
#        106113
#        119081
#        137105
#        150012
#        167211
#
# Disc length: 2397 seconds
#
# Revision: 1
# Processed by: cddbd v1.5.2PL0 Copyright (c) Steve Scherf et al.
# Submitted via: ExactAudioCopy v1.3
#
DISCID=8d095b0c
DTITLE=Old 97's - Most Messed Up
DYEAR=2014
DGENRE=Pop
TTITLE0=Longer Than You've Been Alive
TTITLE1=Give It Time
TTITLE2=Let's Get Drunk and Get It On
TTITLE3=This Is the Ballad
TTITLE4=Wheels Off
TTITLE5=Nashville
TTITLE6=Wasted
TTITLE7=Guadalajara
TTITLE8=The Disconnect
TTITLE9=The Ex of All You See
TTITLE10=Intervention
TTITLE11=Most Messed Up
EXTD=
EXTT0=
EXTT1=
EXTT2=
EXTT3=
EXTT4=
EXTT5=
EXTT6=
EXTT7=
EXTT8=
EXTT9=
EXTT10=
EXTT11=
PLAYORDER=
